<svg xmlns="http://www.w3.org/2000/svg" width="1500" height="1100" viewBox="0 0 1500 1100">
<rect width="100%" height="100%" fill="#f6f2e9" />
<rect x="35" y="35" width="1430" height="1030" rx="26" fill="#fffaf0" stroke="#d4c7ae" stroke-width="2"/>
<text x="70.00" y="78.00" font-family="Avenir Next, Segoe UI, Arial, sans-serif" font-size="30" font-weight="700" fill="#1f1a14">Algorithm 2: Heading-Aware Cubic Hermite</text>
<text x="70.00" y="940.00" font-family="Avenir Next, Segoe UI, Arial, sans-serif" font-size="18" font-weight="400" fill="#6c5f4d">Track view: red = original GPS anchors, blue = enriched points</text>
<text x="900.00" y="108.00" font-family="Avenir Next, Segoe UI, Arial, sans-serif" font-size="16" font-weight="400" fill="#6c5f4d">Estimated speed and lean are derived from the enriched trajectory only.</text>
<rect x="70" y="110" width="760" height="760" rx="22" fill="#fffdf8" stroke="#d8ccb7" stroke-width="1.5"/>
<rect x="900" y="170" width="520" height="260" rx="22" fill="#fffdf8" stroke="#d8ccb7" stroke-width="1.5"/>
<rect x="900" y="560" width="520" height="260" rx="22" fill="#fffdf8" stroke="#d8ccb7" stroke-width="1.5"/>
<text x="70.00" y="145.00" font-family="Avenir Next, Segoe UI, Arial, sans-serif" font-size="22" font-weight="600" fill="#1f1a14">Trajectory</text>
<text x="900.00" y="155.00" font-family="Avenir Next, Segoe UI, Arial, sans-serif" font-size="22" font-weight="600" fill="#1f1a14">Estimated Speed (km/h)</text>
<text x="900.00" y="545.00" font-family="Avenir Next, Segoe UI, Arial, sans-serif" font-size="22" font-weight="600" fill="#1f1a14">Estimated Lean Angle (deg)</text>
<line x1="165.00" y1="110" x2="165.00" y2="870" stroke="#efe5d5" stroke-width="1"/>
<line x1="70" y1="205.00" x2="830" y2="205.00" stroke="#efe5d5" stroke-width="1"/>
<line x1="260.00" y1="110" x2="260.00" y2="870" stroke="#efe5d5" stroke-width="1"/>
<line x1="70" y1="300.00" x2="830" y2="300.00" stroke="#efe5d5" stroke-width="1"/>
<line x1="355.00" y1="110" x2="355.00" y2="870" stroke="#efe5d5" stroke-width="1"/>
<line x1="70" y1="395.00" x2="830" y2="395.00" stroke="#efe5d5" stroke-width="1"/>
<line x1="450.00" y1="110" x2="450.00" y2="870" stroke="#efe5d5" stroke-width="1"/>
<line x1="70" y1="490.00" x2="830" y2="490.00" stroke="#efe5d5" stroke-width="1"/>
<line x1="545.00" y1="110" x2="545.00" y2="870" stroke="#efe5d5" stroke-width="1"/>
<line x1="70" y1="585.00" x2="830" y2="585.00" stroke="#efe5d5" stroke-width="1"/>
<line x1="640.00" y1="110" x2="640.00" y2="870" stroke="#efe5d5" stroke-width="1"/>
<line x1="70" y1="680.00" x2="830" y2="680.00" stroke="#efe5d5" stroke-width="1"/>
<line x1="735.00" y1="110" x2="735.00" y2="870" stroke="#efe5d5" stroke-width="1"/>
<line x1="70" y1="775.00" x2="830" y2="775.00" stroke="#efe5d5" stroke-width="1"/>
<polyline fill="none" stroke="#245fcb" stroke-width="2.5" stroke-linejoin="round" stroke-linecap="round" opacity="0.55" points="450.00,490.00 461.63,483.44 473.27,476.88 484.85,470.41 496.38,464.04 507.85,457.77 519.25,451.69 530.57,445.81 541.80,440.12 552.91,434.71 563.88,429.58 574.72,424.72 585.39,420.22 595.87,416.06 606.17,412.25 616.28,408.86 626.19,405.88 635.91,403.32 645.37,401.21 654.57,399.54 663.52,398.31 672.20,397.55 680.60,397.26 688.73,397.44 696.54,398.08 704.03,399.19 711.21,400.76 718.06,402.77 724.58,405.23 730.76,408.12 736.59,411.41 742.04,415.09 747.13,419.17 751.84,423.58 756.15,428.33 760.09,433.42 763.64,438.76 766.80,444.35 769.58,450.19 771.94,456.21 773.90,462.40 775.44,468.77 776.57,475.22 777.29,481.75 777.59,488.35 777.48,494.93 776.96,501.48 776.04,508.00 774.71,514.40 772.95,520.68 770.78,526.84 768.21,532.77 765.26,538.49 761.90,543.98 758.16,549.18 754.03,554.07 749.50,558.67 744.61,562.91 739.34,566.79 733.70,570.31 727.72,573.40 721.38,576.06 714.69,578.29 707.67,580.07 700.32,581.39 692.64,582.27 684.68,582.68 676.43,582.62 667.90,582.09 659.09,581.11 650.01,579.67 640.66,577.77 631.08,575.43 621.28,572.66 611.25,569.45 601.03,565.87 590.63,561.90 580.03,557.55 569.29,552.89 558.39,547.90 547.34,542.60 536.19,537.06 524.93,531.30 513.57,525.30 502.13,519.15 490.63,512.84 479.05,506.37 467.45,499.85 455.83,493.30 444.17,486.70 432.55,480.15 420.95,473.63 409.37,467.16 397.87,460.85 386.43,454.70 375.07,448.70 363.81,442.94 352.66,437.40 341.61,432.10 330.71,427.11 319.97,422.45 309.37,418.10 298.97,414.13 288.75,410.55 278.72,407.34 268.92,404.57 259.34,402.23 249.99,400.33 240.91,398.89 232.10,397.91 223.57,397.38 215.32,397.32 207.36,397.73 199.68,398.61 192.33,399.93 185.31,401.71 178.62,403.94 172.28,406.60 166.30,409.69 160.66,413.21 155.39,417.09 150.50,421.33 145.97,425.93 141.84,430.82 138.10,436.02 134.74,441.51 131.79,447.23 129.22,453.16 127.05,459.32 125.29,465.60 123.96,472.00 123.04,478.52 122.52,485.07 122.41,491.65 122.71,498.25 123.43,504.78 124.56,511.23 126.10,517.60 128.06,523.79 130.42,529.81 133.20,535.65 136.36,541.24 139.91,546.58 143.85,551.67 148.16,556.42 152.87,560.83 157.96,564.91 163.41,568.59 169.24,571.88 175.42,574.77 181.94,577.23 188.79,579.24 195.97,580.81 203.46,581.92 211.27,582.56 219.40,582.74 227.80,582.45 236.48,581.69 245.43,580.46 254.63,578.79 264.09,576.68 273.81,574.12 283.72,571.14 293.83,567.75 304.13,563.94 314.61,559.78 325.28,555.28 336.12,550.42 347.09,545.29 358.20,539.88 369.43,534.19 380.75,528.31 392.15,522.23 403.62,515.96 415.15,509.59 426.73,503.12 438.37,496.56 450.00,490.00" />
<circle cx="450.00" cy="490.00" r="3.00" fill="#3d7cf0" stroke="none" stroke-width="0" opacity="0.9" />
<circle cx="461.63" cy="483.44" r="3.00" fill="#3d7cf0" stroke="none" stroke-width="0" opacity="0.9" />
<circle cx="473.27" cy="476.88" r="3.00" fill="#3d7cf0" stroke="none" stroke-width="0" opacity="0.9" />
<circle cx="484.85" cy="470.41" r="3.00" fill="#3d7cf0" stroke="none" stroke-width="0" opacity="0.9" />
<circle cx="496.38" cy="464.04" r="3.00" fill="#3d7cf0" stroke="none" stroke-width="0" opacity="0.9" />
<circle cx="507.85" cy="457.77" r="3.00" fill="#3d7cf0" stroke="none" stroke-width="0" opacity="0.9" />
<circle cx="519.25" cy="451.69" r="3.00" fill="#3d7cf0" stroke="none" stroke-width="0" opacity="0.9" />
<circle cx="530.57" cy="445.81" r="3.00" fill="#3d7cf0" stroke="none" stroke-width="0" opacity="0.9" />
<circle cx="541.80" cy="440.12" r="3.00" fill="#3d7cf0" stroke="none" stroke-width="0" opacity="0.9" />
<circle cx="552.91" cy="434.71" r="3.00" fill="#3d7cf0" stroke="none" stroke-width="0" opacity="0.9" />
<circle cx="563.88" cy="429.58" r="3.00" fill="#3d7cf0" stroke="none" stroke-width="0" opacity="0.9" />
<circle cx="574.72" cy="424.72" r="3.00" fill="#3d7cf0" stroke="none" stroke-width="0" opacity="0.9" />
<circle cx="585.39" cy="420.22" r="3.00" fill="#3d7cf0" stroke="none" stroke-width="0" opacity="0.9" />
<circle cx="595.87" cy="416.06" r="3.00" fill="#3d7cf0" stroke="none" stroke-width="0" opacity="0.9" />
<circle cx="606.17" cy="412.25" r="3.00" fill="#3d7cf0" stroke="none" stroke-width="0" opacity="0.9" />
<circle cx="616.28" cy="408.86" r="3.00" fill="#3d7cf0" stroke="none" stroke-width="0" opacity="0.9" />
<circle cx="626.19" cy="405.88" r="3.00" fill="#3d7cf0" stroke="none" stroke-width="0" opacity="0.9" />
<circle cx="635.91" cy="403.32" r="3.00" fill="#3d7cf0" stroke="none" stroke-width="0" opacity="0.9" />
<circle cx="645.37" cy="401.21" r="3.00" fill="#3d7cf0" stroke="none" stroke-width="0" opacity="0.9" />
<circle cx="654.57" cy="399.54" r="3.00" fill="#3d7cf0" stroke="none" stroke-width="0" opacity="0.9" />
<circle cx="663.52" cy="398.31" r="3.00" fill="#3d7cf0" stroke="none" stroke-width="0" opacity="0.9" />
<circle cx="672.20" cy="397.55" r="3.00" fill="#3d7cf0" stroke="none" stroke-width="0" opacity="0.9" />
<circle cx="680.60" cy="397.26" r="3.00" fill="#3d7cf0" stroke="none" stroke-width="0" opacity="0.9" />
<circle cx="688.73" cy="397.44" r="3.00" fill="#3d7cf0" stroke="none" stroke-width="0" opacity="0.9" />
<circle cx="696.54" cy="398.08" r="3.00" fill="#3d7cf0" stroke="none" stroke-width="0" opacity="0.9" />
<circle cx="704.03" cy="399.19" r="3.00" fill="#3d7cf0" stroke="none" stroke-width="0" opacity="0.9" />
<circle cx="711.21" cy="400.76" r="3.00" fill="#3d7cf0" stroke="none" stroke-width="0" opacity="0.9" />
<circle cx="718.06" cy="402.77" r="3.00" fill="#3d7cf0" stroke="none" stroke-width="0" opacity="0.9" />
<circle cx="724.58" cy="405.23" r="3.00" fill="#3d7cf0" stroke="none" stroke-width="0" opacity="0.9" />
<circle cx="730.76" cy="408.12" r="3.00" fill="#3d7cf0" stroke="none" stroke-width="0" opacity="0.9" />
<circle cx="736.59" cy="411.41" r="3.00" fill="#3d7cf0" stroke="none" stroke-width="0" opacity="0.9" />
<circle cx="742.04" cy="415.09" r="3.00" fill="#3d7cf0" stroke="none" stroke-width="0" opacity="0.9" />
<circle cx="747.13" cy="419.17" r="3.00" fill="#3d7cf0" stroke="none" stroke-width="0" opacity="0.9" />
<circle cx="751.84" cy="423.58" r="3.00" fill="#3d7cf0" stroke="none" stroke-width="0" opacity="0.9" />
<circle cx="756.15" cy="428.33" r="3.00" fill="#3d7cf0" stroke="none" stroke-width="0" opacity="0.9" />
<circle cx="760.09" cy="433.42" r="3.00" fill="#3d7cf0" stroke="none" stroke-width="0" opacity="0.9" />
<circle cx="763.64" cy="438.76" r="3.00" fill="#3d7cf0" stroke="none" stroke-width="0" opacity="0.9" />
<circle cx="766.80" cy="444.35" r="3.00" fill="#3d7cf0" stroke="none" stroke-width="0" opacity="0.9" />
<circle cx="769.58" cy="450.19" r="3.00" fill="#3d7cf0" stroke="none" stroke-width="0" opacity="0.9" />
<circle cx="771.94" cy="456.21" r="3.00" fill="#3d7cf0" stroke="none" stroke-width="0" opacity="0.9" />
<circle cx="773.90" cy="462.40" r="3.00" fill="#3d7cf0" stroke="none" stroke-width="0" opacity="0.9" />
<circle cx="775.44" cy="468.77" r="3.00" fill="#3d7cf0" stroke="none" stroke-width="0" opacity="0.9" />
<circle cx="776.57" cy="475.22" r="3.00" fill="#3d7cf0" stroke="none" stroke-width="0" opacity="0.9" />
<circle cx="777.29" cy="481.75" r="3.00" fill="#3d7cf0" stroke="none" stroke-width="0" opacity="0.9" />
<circle cx="777.59" cy="488.35" r="3.00" fill="#3d7cf0" stroke="none" stroke-width="0" opacity="0.9" />
<circle cx="777.48" cy="494.93" r="3.00" fill="#3d7cf0" stroke="none" stroke-width="0" opacity="0.9" />
<circle cx="776.96" cy="501.48" r="3.00" fill="#3d7cf0" stroke="none" stroke-width="0" opacity="0.9" />
<circle cx="776.04" cy="508.00" r="3.00" fill="#3d7cf0" stroke="none" stroke-width="0" opacity="0.9" />
<circle cx="774.71" cy="514.40" r="3.00" fill="#3d7cf0" stroke="none" stroke-width="0" opacity="0.9" />
<circle cx="772.95" cy="520.68" r="3.00" fill="#3d7cf0" stroke="none" stroke-width="0" opacity="0.9" />
<circle cx="770.78" cy="526.84" r="3.00" fill="#3d7cf0" stroke="none" stroke-width="0" opacity="0.9" />
<circle cx="768.21" cy="532.77" r="3.00" fill="#3d7cf0" stroke="none" stroke-width="0" opacity="0.9" />
<circle cx="765.26" cy="538.49" r="3.00" fill="#3d7cf0" stroke="none" stroke-width="0" opacity="0.9" />
<circle cx="761.90" cy="543.98" r="3.00" fill="#3d7cf0" stroke="none" stroke-width="0" opacity="0.9" />
<circle cx="758.16" cy="549.18" r="3.00" fill="#3d7cf0" stroke="none" stroke-width="0" opacity="0.9" />
<circle cx="754.03" cy="554.07" r="3.00" fill="#3d7cf0" stroke="none" stroke-width="0" opacity="0.9" />
<circle cx="749.50" cy="558.67" r="3.00" fill="#3d7cf0" stroke="none" stroke-width="0" opacity="0.9" />
<circle cx="744.61" cy="562.91" r="3.00" fill="#3d7cf0" stroke="none" stroke-width="0" opacity="0.9" />
<circle cx="739.34" cy="566.79" r="3.00" fill="#3d7cf0" stroke="none" stroke-width="0" opacity="0.9" />
<circle cx="733.70" cy="570.31" r="3.00" fill="#3d7cf0" stroke="none" stroke-width="0" opacity="0.9" />
<circle cx="727.72" cy="573.40" r="3.00" fill="#3d7cf0" stroke="none" stroke-width="0" opacity="0.9" />
<circle cx="721.38" cy="576.06" r="3.00" fill="#3d7cf0" stroke="none" stroke-width="0" opacity="0.9" />
<circle cx="714.69" cy="578.29" r="3.00" fill="#3d7cf0" stroke="none" stroke-width="0" opacity="0.9" />
<circle cx="707.67" cy="580.07" r="3.00" fill="#3d7cf0" stroke="none" stroke-width="0" opacity="0.9" />
<circle cx="700.32" cy="581.39" r="3.00" fill="#3d7cf0" stroke="none" stroke-width="0" opacity="0.9" />
<circle cx="692.64" cy="582.27" r="3.00" fill="#3d7cf0" stroke="none" stroke-width="0" opacity="0.9" />
<circle cx="684.68" cy="582.68" r="3.00" fill="#3d7cf0" stroke="none" stroke-width="0" opacity="0.9" />
<circle cx="676.43" cy="582.62" r="3.00" fill="#3d7cf0" stroke="none" stroke-width="0" opacity="0.9" />
<circle cx="667.90" cy="582.09" r="3.00" fill="#3d7cf0" stroke="none" stroke-width="0" opacity="0.9" />
<circle cx="659.09" cy="581.11" r="3.00" fill="#3d7cf0" stroke="none" stroke-width="0" opacity="0.9" />
<circle cx="650.01" cy="579.67" r="3.00" fill="#3d7cf0" stroke="none" stroke-width="0" opacity="0.9" />
<circle cx="640.66" cy="577.77" r="3.00" fill="#3d7cf0" stroke="none" stroke-width="0" opacity="0.9" />
<circle cx="631.08" cy="575.43" r="3.00" fill="#3d7cf0" stroke="none" stroke-width="0" opacity="0.9" />
<circle cx="621.28" cy="572.66" r="3.00" fill="#3d7cf0" stroke="none" stroke-width="0" opacity="0.9" />
<circle cx="611.25" cy="569.45" r="3.00" fill="#3d7cf0" stroke="none" stroke-width="0" opacity="0.9" />
<circle cx="601.03" cy="565.87" r="3.00" fill="#3d7cf0" stroke="none" stroke-width="0" opacity="0.9" />
<circle cx="590.63" cy="561.90" r="3.00" fill="#3d7cf0" stroke="none" stroke-width="0" opacity="0.9" />
<circle cx="580.03" cy="557.55" r="3.00" fill="#3d7cf0" stroke="none" stroke-width="0" opacity="0.9" />
<circle cx="569.29" cy="552.89" r="3.00" fill="#3d7cf0" stroke="none" stroke-width="0" opacity="0.9" />
<circle cx="558.39" cy="547.90" r="3.00" fill="#3d7cf0" stroke="none" stroke-width="0" opacity="0.9" />
<circle cx="547.34" cy="542.60" r="3.00" fill="#3d7cf0" stroke="none" stroke-width="0" opacity="0.9" />
<circle cx="536.19" cy="537.06" r="3.00" fill="#3d7cf0" stroke="none" stroke-width="0" opacity="0.9" />
<circle cx="524.93" cy="531.30" r="3.00" fill="#3d7cf0" stroke="none" stroke-width="0" opacity="0.9" />
<circle cx="513.57" cy="525.30" r="3.00" fill="#3d7cf0" stroke="none" stroke-width="0" opacity="0.9" />
<circle cx="502.13" cy="519.15" r="3.00" fill="#3d7cf0" stroke="none" stroke-width="0" opacity="0.9" />
<circle cx="490.63" cy="512.84" r="3.00" fill="#3d7cf0" stroke="none" stroke-width="0" opacity="0.9" />
<circle cx="479.05" cy="506.37" r="3.00" fill="#3d7cf0" stroke="none" stroke-width="0" opacity="0.9" />
<circle cx="467.45" cy="499.85" r="3.00" fill="#3d7cf0" stroke="none" stroke-width="0" opacity="0.9" />
<circle cx="455.83" cy="493.30" r="3.00" fill="#3d7cf0" stroke="none" stroke-width="0" opacity="0.9" />
<circle cx="444.17" cy="486.70" r="3.00" fill="#3d7cf0" stroke="none" stroke-width="0" opacity="0.9" />
<circle cx="432.55" cy="480.15" r="3.00" fill="#3d7cf0" stroke="none" stroke-width="0" opacity="0.9" />
<circle cx="420.95" cy="473.63" r="3.00" fill="#3d7cf0" stroke="none" stroke-width="0" opacity="0.9" />
<circle cx="409.37" cy="467.16" r="3.00" fill="#3d7cf0" stroke="none" stroke-width="0" opacity="0.9" />
<circle cx="397.87" cy="460.85" r="3.00" fill="#3d7cf0" stroke="none" stroke-width="0" opacity="0.9" />
<circle cx="386.43" cy="454.70" r="3.00" fill="#3d7cf0" stroke="none" stroke-width="0" opacity="0.9" />
<circle cx="375.07" cy="448.70" r="3.00" fill="#3d7cf0" stroke="none" stroke-width="0" opacity="0.9" />
<circle cx="363.81" cy="442.94" r="3.00" fill="#3d7cf0" stroke="none" stroke-width="0" opacity="0.9" />
<circle cx="352.66" cy="437.40" r="3.00" fill="#3d7cf0" stroke="none" stroke-width="0" opacity="0.9" />
<circle cx="341.61" cy="432.10" r="3.00" fill="#3d7cf0" stroke="none" stroke-width="0" opacity="0.9" />
<circle cx="330.71" cy="427.11" r="3.00" fill="#3d7cf0" stroke="none" stroke-width="0" opacity="0.9" />
<circle cx="319.97" cy="422.45" r="3.00" fill="#3d7cf0" stroke="none" stroke-width="0" opacity="0.9" />
<circle cx="309.37" cy="418.10" r="3.00" fill="#3d7cf0" stroke="none" stroke-width="0" opacity="0.9" />
<circle cx="298.97" cy="414.13" r="3.00" fill="#3d7cf0" stroke="none" stroke-width="0" opacity="0.9" />
<circle cx="288.75" cy="410.55" r="3.00" fill="#3d7cf0" stroke="none" stroke-width="0" opacity="0.9" />
<circle cx="278.72" cy="407.34" r="3.00" fill="#3d7cf0" stroke="none" stroke-width="0" opacity="0.9" />
<circle cx="268.92" cy="404.57" r="3.00" fill="#3d7cf0" stroke="none" stroke-width="0" opacity="0.9" />
<circle cx="259.34" cy="402.23" r="3.00" fill="#3d7cf0" stroke="none" stroke-width="0" opacity="0.9" />
<circle cx="249.99" cy="400.33" r="3.00" fill="#3d7cf0" stroke="none" stroke-width="0" opacity="0.9" />
<circle cx="240.91" cy="398.89" r="3.00" fill="#3d7cf0" stroke="none" stroke-width="0" opacity="0.9" />
<circle cx="232.10" cy="397.91" r="3.00" fill="#3d7cf0" stroke="none" stroke-width="0" opacity="0.9" />
<circle cx="223.57" cy="397.38" r="3.00" fill="#3d7cf0" stroke="none" stroke-width="0" opacity="0.9" />
<circle cx="215.32" cy="397.32" r="3.00" fill="#3d7cf0" stroke="none" stroke-width="0" opacity="0.9" />
<circle cx="207.36" cy="397.73" r="3.00" fill="#3d7cf0" stroke="none" stroke-width="0" opacity="0.9" />
<circle cx="199.68" cy="398.61" r="3.00" fill="#3d7cf0" stroke="none" stroke-width="0" opacity="0.9" />
<circle cx="192.33" cy="399.93" r="3.00" fill="#3d7cf0" stroke="none" stroke-width="0" opacity="0.9" />
<circle cx="185.31" cy="401.71" r="3.00" fill="#3d7cf0" stroke="none" stroke-width="0" opacity="0.9" />
<circle cx="178.62" cy="403.94" r="3.00" fill="#3d7cf0" stroke="none" stroke-width="0" opacity="0.9" />
<circle cx="172.28" cy="406.60" r="3.00" fill="#3d7cf0" stroke="none" stroke-width="0" opacity="0.9" />
<circle cx="166.30" cy="409.69" r="3.00" fill="#3d7cf0" stroke="none" stroke-width="0" opacity="0.9" />
<circle cx="160.66" cy="413.21" r="3.00" fill="#3d7cf0" stroke="none" stroke-width="0" opacity="0.9" />
<circle cx="155.39" cy="417.09" r="3.00" fill="#3d7cf0" stroke="none" stroke-width="0" opacity="0.9" />
<circle cx="150.50" cy="421.33" r="3.00" fill="#3d7cf0" stroke="none" stroke-width="0" opacity="0.9" />
<circle cx="145.97" cy="425.93" r="3.00" fill="#3d7cf0" stroke="none" stroke-width="0" opacity="0.9" />
<circle cx="141.84" cy="430.82" r="3.00" fill="#3d7cf0" stroke="none" stroke-width="0" opacity="0.9" />
<circle cx="138.10" cy="436.02" r="3.00" fill="#3d7cf0" stroke="none" stroke-width="0" opacity="0.9" />
<circle cx="134.74" cy="441.51" r="3.00" fill="#3d7cf0" stroke="none" stroke-width="0" opacity="0.9" />
<circle cx="131.79" cy="447.23" r="3.00" fill="#3d7cf0" stroke="none" stroke-width="0" opacity="0.9" />
<circle cx="129.22" cy="453.16" r="3.00" fill="#3d7cf0" stroke="none" stroke-width="0" opacity="0.9" />
<circle cx="127.05" cy="459.32" r="3.00" fill="#3d7cf0" stroke="none" stroke-width="0" opacity="0.9" />
<circle cx="125.29" cy="465.60" r="3.00" fill="#3d7cf0" stroke="none" stroke-width="0" opacity="0.9" />
<circle cx="123.96" cy="472.00" r="3.00" fill="#3d7cf0" stroke="none" stroke-width="0" opacity="0.9" />
<circle cx="123.04" cy="478.52" r="3.00" fill="#3d7cf0" stroke="none" stroke-width="0" opacity="0.9" />
<circle cx="122.52" cy="485.07" r="3.00" fill="#3d7cf0" stroke="none" stroke-width="0" opacity="0.9" />
<circle cx="122.41" cy="491.65" r="3.00" fill="#3d7cf0" stroke="none" stroke-width="0" opacity="0.9" />
<circle cx="122.71" cy="498.25" r="3.00" fill="#3d7cf0" stroke="none" stroke-width="0" opacity="0.9" />
<circle cx="123.43" cy="504.78" r="3.00" fill="#3d7cf0" stroke="none" stroke-width="0" opacity="0.9" />
<circle cx="124.56" cy="511.23" r="3.00" fill="#3d7cf0" stroke="none" stroke-width="0" opacity="0.9" />
<circle cx="126.10" cy="517.60" r="3.00" fill="#3d7cf0" stroke="none" stroke-width="0" opacity="0.9" />
<circle cx="128.06" cy="523.79" r="3.00" fill="#3d7cf0" stroke="none" stroke-width="0" opacity="0.9" />
<circle cx="130.42" cy="529.81" r="3.00" fill="#3d7cf0" stroke="none" stroke-width="0" opacity="0.9" />
<circle cx="133.20" cy="535.65" r="3.00" fill="#3d7cf0" stroke="none" stroke-width="0" opacity="0.9" />
<circle cx="136.36" cy="541.24" r="3.00" fill="#3d7cf0" stroke="none" stroke-width="0" opacity="0.9" />
<circle cx="139.91" cy="546.58" r="3.00" fill="#3d7cf0" stroke="none" stroke-width="0" opacity="0.9" />
<circle cx="143.85" cy="551.67" r="3.00" fill="#3d7cf0" stroke="none" stroke-width="0" opacity="0.9" />
<circle cx="148.16" cy="556.42" r="3.00" fill="#3d7cf0" stroke="none" stroke-width="0" opacity="0.9" />
<circle cx="152.87" cy="560.83" r="3.00" fill="#3d7cf0" stroke="none" stroke-width="0" opacity="0.9" />
<circle cx="157.96" cy="564.91" r="3.00" fill="#3d7cf0" stroke="none" stroke-width="0" opacity="0.9" />
<circle cx="163.41" cy="568.59" r="3.00" fill="#3d7cf0" stroke="none" stroke-width="0" opacity="0.9" />
<circle cx="169.24" cy="571.88" r="3.00" fill="#3d7cf0" stroke="none" stroke-width="0" opacity="0.9" />
<circle cx="175.42" cy="574.77" r="3.00" fill="#3d7cf0" stroke="none" stroke-width="0" opacity="0.9" />
<circle cx="181.94" cy="577.23" r="3.00" fill="#3d7cf0" stroke="none" stroke-width="0" opacity="0.9" />
<circle cx="188.79" cy="579.24" r="3.00" fill="#3d7cf0" stroke="none" stroke-width="0" opacity="0.9" />
<circle cx="195.97" cy="580.81" r="3.00" fill="#3d7cf0" stroke="none" stroke-width="0" opacity="0.9" />
<circle cx="203.46" cy="581.92" r="3.00" fill="#3d7cf0" stroke="none" stroke-width="0" opacity="0.9" />
<circle cx="211.27" cy="582.56" r="3.00" fill="#3d7cf0" stroke="none" stroke-width="0" opacity="0.9" />
<circle cx="219.40" cy="582.74" r="3.00" fill="#3d7cf0" stroke="none" stroke-width="0" opacity="0.9" />
<circle cx="227.80" cy="582.45" r="3.00" fill="#3d7cf0" stroke="none" stroke-width="0" opacity="0.9" />
<circle cx="236.48" cy="581.69" r="3.00" fill="#3d7cf0" stroke="none" stroke-width="0" opacity="0.9" />
<circle cx="245.43" cy="580.46" r="3.00" fill="#3d7cf0" stroke="none" stroke-width="0" opacity="0.9" />
<circle cx="254.63" cy="578.79" r="3.00" fill="#3d7cf0" stroke="none" stroke-width="0" opacity="0.9" />
<circle cx="264.09" cy="576.68" r="3.00" fill="#3d7cf0" stroke="none" stroke-width="0" opacity="0.9" />
<circle cx="273.81" cy="574.12" r="3.00" fill="#3d7cf0" stroke="none" stroke-width="0" opacity="0.9" />
<circle cx="283.72" cy="571.14" r="3.00" fill="#3d7cf0" stroke="none" stroke-width="0" opacity="0.9" />
<circle cx="293.83" cy="567.75" r="3.00" fill="#3d7cf0" stroke="none" stroke-width="0" opacity="0.9" />
<circle cx="304.13" cy="563.94" r="3.00" fill="#3d7cf0" stroke="none" stroke-width="0" opacity="0.9" />
<circle cx="314.61" cy="559.78" r="3.00" fill="#3d7cf0" stroke="none" stroke-width="0" opacity="0.9" />
<circle cx="325.28" cy="555.28" r="3.00" fill="#3d7cf0" stroke="none" stroke-width="0" opacity="0.9" />
<circle cx="336.12" cy="550.42" r="3.00" fill="#3d7cf0" stroke="none" stroke-width="0" opacity="0.9" />
<circle cx="347.09" cy="545.29" r="3.00" fill="#3d7cf0" stroke="none" stroke-width="0" opacity="0.9" />
<circle cx="358.20" cy="539.88" r="3.00" fill="#3d7cf0" stroke="none" stroke-width="0" opacity="0.9" />
<circle cx="369.43" cy="534.19" r="3.00" fill="#3d7cf0" stroke="none" stroke-width="0" opacity="0.9" />
<circle cx="380.75" cy="528.31" r="3.00" fill="#3d7cf0" stroke="none" stroke-width="0" opacity="0.9" />
<circle cx="392.15" cy="522.23" r="3.00" fill="#3d7cf0" stroke="none" stroke-width="0" opacity="0.9" />
<circle cx="403.62" cy="515.96" r="3.00" fill="#3d7cf0" stroke="none" stroke-width="0" opacity="0.9" />
<circle cx="415.15" cy="509.59" r="3.00" fill="#3d7cf0" stroke="none" stroke-width="0" opacity="0.9" />
<circle cx="426.73" cy="503.12" r="3.00" fill="#3d7cf0" stroke="none" stroke-width="0" opacity="0.9" />
<circle cx="438.37" cy="496.56" r="3.00" fill="#3d7cf0" stroke="none" stroke-width="0" opacity="0.9" />
<circle cx="450.00" cy="490.00" r="3.00" fill="#3d7cf0" stroke="none" stroke-width="0" opacity="0.9" />
<circle cx="450.00" cy="490.00" r="5.20" fill="#d74334" stroke="#fff8ef" stroke-width="1.5" opacity="0.98" />
<circle cx="484.85" cy="470.41" r="5.20" fill="#d74334" stroke="#fff8ef" stroke-width="1.5" opacity="0.98" />
<circle cx="519.25" cy="451.69" r="5.20" fill="#d74334" stroke="#fff8ef" stroke-width="1.5" opacity="0.98" />
<circle cx="552.91" cy="434.71" r="5.20" fill="#d74334" stroke="#fff8ef" stroke-width="1.5" opacity="0.98" />
<circle cx="585.39" cy="420.22" r="5.20" fill="#d74334" stroke="#fff8ef" stroke-width="1.5" opacity="0.98" />
<circle cx="616.28" cy="408.86" r="5.20" fill="#d74334" stroke="#fff8ef" stroke-width="1.5" opacity="0.98" />
<circle cx="645.37" cy="401.21" r="5.20" fill="#d74334" stroke="#fff8ef" stroke-width="1.5" opacity="0.98" />
<circle cx="672.20" cy="397.55" r="5.20" fill="#d74334" stroke="#fff8ef" stroke-width="1.5" opacity="0.98" />
<circle cx="696.54" cy="398.08" r="5.20" fill="#d74334" stroke="#fff8ef" stroke-width="1.5" opacity="0.98" />
<circle cx="718.06" cy="402.77" r="5.20" fill="#d74334" stroke="#fff8ef" stroke-width="1.5" opacity="0.98" />
<circle cx="736.59" cy="411.41" r="5.20" fill="#d74334" stroke="#fff8ef" stroke-width="1.5" opacity="0.98" />
<circle cx="751.84" cy="423.58" r="5.20" fill="#d74334" stroke="#fff8ef" stroke-width="1.5" opacity="0.98" />
<circle cx="763.64" cy="438.76" r="5.20" fill="#d74334" stroke="#fff8ef" stroke-width="1.5" opacity="0.98" />
<circle cx="771.94" cy="456.21" r="5.20" fill="#d74334" stroke="#fff8ef" stroke-width="1.5" opacity="0.98" />
<circle cx="776.57" cy="475.22" r="5.20" fill="#d74334" stroke="#fff8ef" stroke-width="1.5" opacity="0.98" />
<circle cx="777.48" cy="494.93" r="5.20" fill="#d74334" stroke="#fff8ef" stroke-width="1.5" opacity="0.98" />
<circle cx="774.71" cy="514.40" r="5.20" fill="#d74334" stroke="#fff8ef" stroke-width="1.5" opacity="0.98" />
<circle cx="768.21" cy="532.77" r="5.20" fill="#d74334" stroke="#fff8ef" stroke-width="1.5" opacity="0.98" />
<circle cx="758.16" cy="549.18" r="5.20" fill="#d74334" stroke="#fff8ef" stroke-width="1.5" opacity="0.98" />
<circle cx="744.61" cy="562.91" r="5.20" fill="#d74334" stroke="#fff8ef" stroke-width="1.5" opacity="0.98" />
<circle cx="727.72" cy="573.40" r="5.20" fill="#d74334" stroke="#fff8ef" stroke-width="1.5" opacity="0.98" />
<circle cx="707.67" cy="580.07" r="5.20" fill="#d74334" stroke="#fff8ef" stroke-width="1.5" opacity="0.98" />
<circle cx="684.68" cy="582.68" r="5.20" fill="#d74334" stroke="#fff8ef" stroke-width="1.5" opacity="0.98" />
<circle cx="659.09" cy="581.11" r="5.20" fill="#d74334" stroke="#fff8ef" stroke-width="1.5" opacity="0.98" />
<circle cx="631.08" cy="575.43" r="5.20" fill="#d74334" stroke="#fff8ef" stroke-width="1.5" opacity="0.98" />
<circle cx="601.03" cy="565.87" r="5.20" fill="#d74334" stroke="#fff8ef" stroke-width="1.5" opacity="0.98" />
<circle cx="569.29" cy="552.89" r="5.20" fill="#d74334" stroke="#fff8ef" stroke-width="1.5" opacity="0.98" />
<circle cx="536.19" cy="537.06" r="5.20" fill="#d74334" stroke="#fff8ef" stroke-width="1.5" opacity="0.98" />
<circle cx="502.13" cy="519.15" r="5.20" fill="#d74334" stroke="#fff8ef" stroke-width="1.5" opacity="0.98" />
<circle cx="467.45" cy="499.85" r="5.20" fill="#d74334" stroke="#fff8ef" stroke-width="1.5" opacity="0.98" />
<circle cx="432.55" cy="480.15" r="5.20" fill="#d74334" stroke="#fff8ef" stroke-width="1.5" opacity="0.98" />
<circle cx="397.87" cy="460.85" r="5.20" fill="#d74334" stroke="#fff8ef" stroke-width="1.5" opacity="0.98" />
<circle cx="363.81" cy="442.94" r="5.20" fill="#d74334" stroke="#fff8ef" stroke-width="1.5" opacity="0.98" />
<circle cx="330.71" cy="427.11" r="5.20" fill="#d74334" stroke="#fff8ef" stroke-width="1.5" opacity="0.98" />
<circle cx="298.97" cy="414.13" r="5.20" fill="#d74334" stroke="#fff8ef" stroke-width="1.5" opacity="0.98" />
<circle cx="268.92" cy="404.57" r="5.20" fill="#d74334" stroke="#fff8ef" stroke-width="1.5" opacity="0.98" />
<circle cx="240.91" cy="398.89" r="5.20" fill="#d74334" stroke="#fff8ef" stroke-width="1.5" opacity="0.98" />
<circle cx="215.32" cy="397.32" r="5.20" fill="#d74334" stroke="#fff8ef" stroke-width="1.5" opacity="0.98" />
<circle cx="192.33" cy="399.93" r="5.20" fill="#d74334" stroke="#fff8ef" stroke-width="1.5" opacity="0.98" />
<circle cx="172.28" cy="406.60" r="5.20" fill="#d74334" stroke="#fff8ef" stroke-width="1.5" opacity="0.98" />
<circle cx="155.39" cy="417.09" r="5.20" fill="#d74334" stroke="#fff8ef" stroke-width="1.5" opacity="0.98" />
<circle cx="141.84" cy="430.82" r="5.20" fill="#d74334" stroke="#fff8ef" stroke-width="1.5" opacity="0.98" />
<circle cx="131.79" cy="447.23" r="5.20" fill="#d74334" stroke="#fff8ef" stroke-width="1.5" opacity="0.98" />
<circle cx="125.29" cy="465.60" r="5.20" fill="#d74334" stroke="#fff8ef" stroke-width="1.5" opacity="0.98" />
<circle cx="122.52" cy="485.07" r="5.20" fill="#d74334" stroke="#fff8ef" stroke-width="1.5" opacity="0.98" />
<circle cx="123.43" cy="504.78" r="5.20" fill="#d74334" stroke="#fff8ef" stroke-width="1.5" opacity="0.98" />
<circle cx="128.06" cy="523.79" r="5.20" fill="#d74334" stroke="#fff8ef" stroke-width="1.5" opacity="0.98" />
<circle cx="136.36" cy="541.24" r="5.20" fill="#d74334" stroke="#fff8ef" stroke-width="1.5" opacity="0.98" />
<circle cx="148.16" cy="556.42" r="5.20" fill="#d74334" stroke="#fff8ef" stroke-width="1.5" opacity="0.98" />
<circle cx="163.41" cy="568.59" r="5.20" fill="#d74334" stroke="#fff8ef" stroke-width="1.5" opacity="0.98" />
<circle cx="181.94" cy="577.23" r="5.20" fill="#d74334" stroke="#fff8ef" stroke-width="1.5" opacity="0.98" />
<circle cx="203.46" cy="581.92" r="5.20" fill="#d74334" stroke="#fff8ef" stroke-width="1.5" opacity="0.98" />
<circle cx="227.80" cy="582.45" r="5.20" fill="#d74334" stroke="#fff8ef" stroke-width="1.5" opacity="0.98" />
<circle cx="254.63" cy="578.79" r="5.20" fill="#d74334" stroke="#fff8ef" stroke-width="1.5" opacity="0.98" />
<circle cx="283.72" cy="571.14" r="5.20" fill="#d74334" stroke="#fff8ef" stroke-width="1.5" opacity="0.98" />
<circle cx="314.61" cy="559.78" r="5.20" fill="#d74334" stroke="#fff8ef" stroke-width="1.5" opacity="0.98" />
<circle cx="347.09" cy="545.29" r="5.20" fill="#d74334" stroke="#fff8ef" stroke-width="1.5" opacity="0.98" />
<circle cx="380.75" cy="528.31" r="5.20" fill="#d74334" stroke="#fff8ef" stroke-width="1.5" opacity="0.98" />
<circle cx="415.15" cy="509.59" r="5.20" fill="#d74334" stroke="#fff8ef" stroke-width="1.5" opacity="0.98" />
<circle cx="450.00" cy="490.00" r="5.20" fill="#d74334" stroke="#fff8ef" stroke-width="1.5" opacity="0.98" />
<circle cx="450.00" cy="490.00" r="8.00" fill="#1d9b5d" stroke="#ffffff" stroke-width="2" opacity="1.0" />
<text x="462.00" y="480.00" font-family="Avenir Next, Segoe UI, Arial, sans-serif" font-size="16" font-weight="700" fill="#1d9b5d">Start</text>
<circle cx="450.00" cy="490.00" r="8.00" fill="#222222" stroke="#ffffff" stroke-width="2" opacity="1.0" />
<text x="462.00" y="514.00" font-family="Avenir Next, Segoe UI, Arial, sans-serif" font-size="16" font-weight="700" fill="#222222">End</text>
<line x1="900" y1="235.00" x2="1420" y2="235.00" stroke="#efe5d5" stroke-width="1"/>
<line x1="900" y1="300.00" x2="1420" y2="300.00" stroke="#efe5d5" stroke-width="1"/>
<line x1="900" y1="365.00" x2="1420" y2="365.00" stroke="#efe5d5" stroke-width="1"/>
<line x1="986.67" y1="170" x2="986.67" y2="430" stroke="#f4ecdf" stroke-width="1"/>
<line x1="1073.33" y1="170" x2="1073.33" y2="430" stroke="#f4ecdf" stroke-width="1"/>
<line x1="1160.00" y1="170" x2="1160.00" y2="430" stroke="#f4ecdf" stroke-width="1"/>
<line x1="1246.67" y1="170" x2="1246.67" y2="430" stroke="#f4ecdf" stroke-width="1"/>
<line x1="1333.33" y1="170" x2="1333.33" y2="430" stroke="#f4ecdf" stroke-width="1"/>
<line x1="900" y1="625.00" x2="1420" y2="625.00" stroke="#efe5d5" stroke-width="1"/>
<line x1="900" y1="690.00" x2="1420" y2="690.00" stroke="#efe5d5" stroke-width="1"/>
<line x1="900" y1="755.00" x2="1420" y2="755.00" stroke="#efe5d5" stroke-width="1"/>
<line x1="986.67" y1="560" x2="986.67" y2="820" stroke="#f4ecdf" stroke-width="1"/>
<line x1="1073.33" y1="560" x2="1073.33" y2="820" stroke="#f4ecdf" stroke-width="1"/>
<line x1="1160.00" y1="560" x2="1160.00" y2="820" stroke="#f4ecdf" stroke-width="1"/>
<line x1="1246.67" y1="560" x2="1246.67" y2="820" stroke="#f4ecdf" stroke-width="1"/>
<line x1="1333.33" y1="560" x2="1333.33" y2="820" stroke="#f4ecdf" stroke-width="1"/>
<polyline fill="none" stroke="#245fcb" stroke-width="3.0" stroke-linejoin="round" stroke-linecap="round" opacity="0.95" points="900.00,172.57 902.94,171.72 905.88,170.86 908.81,170.00 911.75,170.43 914.69,170.86 917.63,171.29 920.56,173.00 923.50,174.72 926.44,176.44 929.38,179.87 932.32,183.30 935.25,186.73 938.19,191.02 941.13,195.31 944.07,199.60 947.01,204.75 949.94,209.90 952.88,215.05 955.82,220.63 958.76,226.20 961.69,231.78 964.63,238.22 967.57,244.65 970.51,251.09 973.45,256.67 976.38,262.24 979.32,267.82 982.26,273.40 985.20,278.98 988.14,284.55 991.07,289.70 994.01,294.85 996.95,300.00 999.89,303.86 1002.82,307.72 1005.76,311.58 1008.70,314.59 1011.64,317.59 1014.58,320.59 1017.51,322.31 1020.45,324.03 1023.39,325.74 1026.33,326.17 1029.27,326.60 1032.20,327.03 1035.14,326.17 1038.08,325.31 1041.02,324.46 1043.95,321.88 1046.89,319.31 1049.83,316.73 1052.77,313.30 1055.71,309.87 1058.64,306.44 1061.58,301.72 1064.52,297.00 1067.46,292.28 1070.40,287.13 1073.33,281.98 1076.27,276.83 1079.21,271.25 1082.15,265.68 1085.08,260.10 1088.02,253.66 1090.96,247.23 1093.90,240.79 1096.84,235.21 1099.77,229.64 1102.71,224.06 1105.65,218.48 1108.59,212.90 1111.53,207.33 1114.46,202.61 1117.40,197.89 1120.34,193.17 1123.28,189.31 1126.21,185.45 1129.15,181.58 1132.09,179.01 1135.03,176.44 1137.97,173.86 1140.90,172.57 1143.84,171.29 1146.78,170.00 1149.72,170.00 1152.66,170.00 1155.59,170.00 1158.53,172.15 1161.47,174.29 1164.41,176.44 1167.34,179.44 1170.28,182.44 1173.22,185.45 1176.16,190.59 1179.10,195.74 1182.03,200.89 1184.97,206.90 1187.91,212.90 1190.85,218.91 1193.79,225.78 1196.72,232.64 1199.66,239.50 1202.60,247.66 1205.54,255.81 1208.47,263.96 1211.41,272.54 1214.35,281.12 1217.29,289.70 1220.23,298.28 1223.16,306.86 1226.10,315.45 1229.04,323.60 1231.98,331.75 1234.92,339.90 1237.85,348.05 1240.79,356.20 1243.73,364.36 1246.67,371.22 1249.60,378.09 1252.54,384.95 1255.48,390.96 1258.42,396.96 1261.36,402.97 1264.29,407.69 1267.23,412.41 1270.17,417.13 1273.11,420.13 1276.05,423.14 1278.98,426.14 1281.92,427.43 1284.86,428.71 1287.80,430.00 1290.73,429.57 1293.67,429.14 1296.61,428.71 1299.55,426.57 1302.49,424.42 1305.42,422.28 1308.36,418.42 1311.30,414.55 1314.24,410.69 1317.18,405.54 1320.11,400.40 1323.05,395.25 1325.99,388.38 1328.93,381.52 1331.86,374.65 1334.80,367.36 1337.74,360.07 1340.68,352.77 1343.62,344.62 1346.55,336.47 1349.49,328.32 1352.43,319.74 1355.37,311.16 1358.31,302.57 1361.24,293.99 1364.18,285.41 1367.12,276.83 1370.06,268.68 1372.99,260.53 1375.93,252.38 1378.87,244.65 1381.81,236.93 1384.75,229.21 1387.68,222.34 1390.62,215.48 1393.56,208.61 1396.50,203.47 1399.44,198.32 1402.37,193.17 1405.31,188.88 1408.25,184.59 1411.19,180.30 1414.12,177.72 1417.06,175.15 1420.00,172.57" />
<polyline fill="none" stroke="#d74334" stroke-width="2.2" stroke-linejoin="round" stroke-linecap="round" opacity="0.8" points="900.00,172.57 908.81,170.00 917.63,171.29 926.44,176.44 935.25,186.73 944.07,199.60 952.88,215.05 961.69,231.78 970.51,251.09 979.32,267.82 988.14,284.55 996.95,300.00 1005.76,311.58 1014.58,320.59 1023.39,325.74 1032.20,327.03 1041.02,324.46 1049.83,316.73 1058.64,306.44 1067.46,292.28 1076.27,276.83 1085.08,260.10 1093.90,240.79 1102.71,224.06 1111.53,207.33 1120.34,193.17 1129.15,181.58 1137.97,173.86 1146.78,170.00 1155.59,170.00 1164.41,176.44 1173.22,185.45 1182.03,200.89 1190.85,218.91 1199.66,239.50 1208.47,263.96 1217.29,289.70 1226.10,315.45 1234.92,339.90 1243.73,364.36 1252.54,384.95 1261.36,402.97 1270.17,417.13 1278.98,426.14 1287.80,430.00 1296.61,428.71 1305.42,422.28 1314.24,410.69 1323.05,395.25 1331.86,374.65 1340.68,352.77 1349.49,328.32 1358.31,302.57 1367.12,276.83 1375.93,252.38 1384.75,229.21 1393.56,208.61 1402.37,193.17 1411.19,180.30 1420.00,172.57" />
<polyline fill="none" stroke="#245fcb" stroke-width="3.0" stroke-linejoin="round" stroke-linecap="round" opacity="0.95" points="900.00,711.47 902.94,711.47 905.88,704.18 908.81,704.38 911.75,703.86 914.69,694.68 917.63,693.18 920.56,693.49 923.50,685.56 926.44,683.75 929.38,682.85 932.32,674.22 935.25,671.79 938.19,669.18 941.13,657.65 944.07,651.44 947.01,649.44 949.94,641.20 952.88,634.63 955.82,628.79 958.76,618.77 961.69,609.81 964.63,603.82 967.57,595.83 970.51,585.63 973.45,579.59 976.38,576.75 979.32,569.17 982.26,565.20 985.20,566.78 988.14,561.77 991.07,561.22 994.01,567.73 996.95,565.64 999.89,569.08 1002.82,581.20 1005.76,583.80 1008.70,585.47 1011.64,591.56 1014.58,592.21 1017.51,596.43 1020.45,602.09 1023.39,602.05 1026.33,604.63 1029.27,607.58 1032.20,607.85 1035.14,606.79 1038.08,601.30 1041.02,597.56 1043.95,597.99 1046.89,592.36 1049.83,589.20 1052.77,586.64 1055.71,576.28 1058.64,572.59 1061.58,572.92 1064.52,565.20 1067.46,565.21 1070.40,567.13 1073.33,560.00 1076.27,560.84 1079.21,568.84 1082.15,571.53 1085.08,577.43 1088.02,586.21 1090.96,592.01 1093.90,598.08 1096.84,607.38 1099.77,616.18 1102.71,622.53 1105.65,630.64 1108.59,639.70 1111.53,643.27 1114.46,649.86 1117.40,660.24 1120.34,662.87 1123.28,666.72 1126.21,676.07 1129.15,677.21 1132.09,679.84 1135.03,689.04 1137.97,690.02 1140.90,690.79 1143.84,698.01 1146.78,697.31 1149.72,698.79 1152.66,708.14 1155.59,708.98 1158.53,708.22 1161.47,714.69 1164.41,713.90 1167.34,714.69 1170.28,723.63 1173.22,724.90 1176.16,724.06 1179.10,730.56 1182.03,731.01 1184.97,731.65 1187.91,739.57 1190.85,741.53 1193.79,742.16 1196.72,749.84 1199.66,752.66 1202.60,754.28 1205.54,762.31 1208.47,766.99 1211.41,769.15 1214.35,775.68 1217.29,781.31 1220.23,785.39 1223.16,791.32 1226.10,797.54 1229.04,801.48 1231.98,805.15 1234.92,811.17 1237.85,814.50 1240.79,815.12 1243.73,820.00 1246.67,819.41 1249.60,812.42 1252.54,812.66 1255.48,811.61 1258.42,804.60 1261.36,803.80 1264.29,800.12 1267.23,791.71 1270.17,789.03 1273.11,786.41 1276.05,782.14 1278.98,782.03 1281.92,779.27 1284.86,775.38 1287.80,774.45 1290.73,774.67 1293.67,776.65 1296.61,778.40 1299.55,778.69 1302.49,782.82 1305.42,786.04 1308.36,787.12 1311.30,792.05 1314.24,793.90 1317.18,796.71 1320.11,806.71 1323.05,810.35 1325.99,810.04 1328.93,816.48 1331.86,817.33 1334.80,814.59 1337.74,817.13 1340.68,815.12 1343.62,810.49 1346.55,809.64 1349.49,806.11 1352.43,799.01 1355.37,793.63 1358.31,789.78 1361.24,783.67 1364.18,776.58 1367.12,772.73 1370.06,768.18 1372.99,762.11 1375.93,761.12 1378.87,756.57 1381.81,747.35 1384.75,745.61 1387.68,743.94 1390.62,736.73 1393.56,736.26 1396.50,734.93 1399.44,727.95 1402.37,728.44 1405.31,727.26 1408.25,718.72 1411.19,718.31 1414.12,718.59 1417.06,711.47 1420.00,711.47" />
<polyline fill="none" stroke="#d74334" stroke-width="2.2" stroke-linejoin="round" stroke-linecap="round" opacity="0.8" points="900.00,704.02 908.81,703.96 917.63,693.95 926.44,684.00 935.25,671.52 944.07,653.36 952.88,634.92 961.69,611.17 970.51,587.95 979.32,570.96 988.14,563.92 996.95,568.36 1005.76,582.99 1014.58,593.64 1023.39,602.88 1032.20,606.71 1041.02,599.28 1049.83,589.07 1058.64,574.50 1067.46,565.99 1076.27,564.45 1085.08,579.05 1093.90,599.59 1102.71,623.46 1111.53,644.59 1120.34,663.29 1129.15,677.75 1137.97,689.76 1146.78,698.30 1155.59,708.15 1164.41,714.72 1173.22,723.97 1182.03,731.24 1190.85,741.05 1199.66,752.30 1208.47,765.90 1217.29,780.56 1226.10,796.32 1234.92,809.86 1243.73,817.06 1252.54,812.04 1261.36,802.37 1270.17,789.12 1278.98,780.86 1287.80,775.20 1296.61,777.85 1305.42,785.06 1314.24,794.48 1323.05,808.25 1331.86,815.61 1340.68,813.67 1349.49,804.23 1358.31,788.68 1367.12,772.50 1375.93,759.52 1384.75,745.84 1393.56,736.03 1402.37,727.72 1411.19,718.72 1420.00,718.92" />
<circle cx="920.00" cy="930.00" r="6.00" fill="#d74334" stroke="none" stroke-width="0" opacity="1.0" />
<text x="936.00" y="935.00" font-family="Avenir Next, Segoe UI, Arial, sans-serif" font-size="18" font-weight="400" fill="#322a21">Original GPS points / original GPS-derived traces</text>
<circle cx="920.00" cy="964.00" r="6.00" fill="#3d7cf0" stroke="none" stroke-width="0" opacity="1.0" />
<text x="936.00" y="969.00" font-family="Avenir Next, Segoe UI, Arial, sans-serif" font-size="18" font-weight="400" fill="#322a21">Enriched points / enriched speed + lean estimates</text>
<text x="70.00" y="1000.00" font-family="Avenir Next, Segoe UI, Arial, sans-serif" font-size="18" font-weight="400" fill="#6c5f4d">Input source: temp_data/figure8_60pts.csv only. No prior track template assumed.</text>
</svg>